<svg height="400" viewBox="0 0 400 400.00001" width="400" xmlns="http://www.w3.org/2000/svg" xmlns:xlink="http://www.w3.org/1999/xlink"><filter id="a" color-interpolation-filters="sRGB" height="2.790057" width="1.326313" x="-.163156" y="-.895029"><feGaussianBlur stdDeviation="20.045345"/></filter><linearGradient id="b" gradientTransform="matrix(1.0411841 0 0 1.0762485 -9.519962 -63.757659)" gradientUnits="userSpaceOnUse" x1="109.08" x2="54.540001" y1="834.16205" y2="925.06201"><stop offset="0" stop-color="#729fcf"/><stop offset="1" stop-color="#3465a4"/></linearGradient><linearGradient id="c" gradientTransform="matrix(1.0411841 0 0 1.0762485 -9.519962 638.34612)" gradientUnits="userSpaceOnUse" x1="309.06" x2="181.8" y1="127.25993" y2="272.69989"><stop offset="0" stop-color="#fff"/><stop offset="1" stop-color="#fff" stop-opacity="0"/></linearGradient><linearGradient id="d" gradientTransform="matrix(.48022142 0 0 .42359559 36.042016 588.63302)" gradientUnits="userSpaceOnUse" x1="188.86957" x2="147.60632" y1="302.79019" y2="454.99908"><stop offset="0" stop-color="#73d216"/><stop offset="1" stop-color="#73d216" stop-opacity="0"/></linearGradient><linearGradient id="e" gradientTransform="matrix(.48022142 0 0 .42359559 36.042016 588.63302)" gradientUnits="userSpaceOnUse" x1="145.17996" x2="147.60632" y1="330.97702" y2="454.99908"><stop offset="0" stop-color="#4e9a06"/><stop offset="1" stop-color="#4e9a06" stop-opacity="0"/></linearGradient><filter id="f" color-interpolation-filters="sRGB" height="1.291363" width="1.113343" x="-.056672" y="-.145682"><feGaussianBlur stdDeviation="7.081134"/></filter><g transform="translate(0 -652.36214)"><path d="m350.01785 977.40332a147.43176 26.875582 0 0 1 -147.43176 26.87558 147.43176 26.875582 0 0 1 -147.431763-26.87558 147.43176 26.875582 0 0 1 147.431763-26.87558 147.43176 26.875582 0 0 1 147.43176 26.87558z" filter="url(#a)" opacity=".805" transform="matrix(1.0225628 0 0 1.1594155 -7.293253 -214.95755)"/><rect fill="#1b3e71" height="163.61995" ry="11.331678" width="363.59998" x="18.243746" y="761.44208"/><rect fill="none" height="400" ry="9.08999" width="400" x=".00147" y="652.36212"/><rect fill="url(#b)" height="136.96333" ry="16.260967" width="340.71707" x="28.337494" y="775.30939"/><path d="m59.063975 775.50474c-16.594821 0-30.540046 14.41275-30.540046 31.56645v73.63473c0 17.15369 13.945225 31.56856 30.540046 31.56856h279.263065c29.04364 0 30.54005-4.38158 30.54005-31.56856v-73.63473c0-32.54839-5.33664-31.56645-30.54005-31.56645zm-6 13.37036h291.263065c6.53632 0 11.79873 5.43965 11.79873 12.19609v85.63263c0 6.75644-5.26241 12.19609-11.79873 12.19609h-291.263065c-6.536306 0-11.798732-5.43965-11.798732-12.19609v-85.63263c0-6.75644 5.262426-12.19609 11.798732-12.19609z" fill="url(#c)"/><ellipse cx="100.05235" cy="843.25208" rx="27.27047" ry="27.269989"/><ellipse cx="196.95235" cy="843.25208" rx="27.27047" ry="27.269989"/><ellipse cx="293.8533" cy="843.25208" rx="27.27047" ry="27.269989"/><path d="m172.54716 713.73892s-73.083142-4.50808-50.59603 71.22759h-62.86173s4.088563-85.65343 113.45776-71.22759z" display="block" fill="url(#d)" stroke="url(#e)" stroke-width="7.679908"/><path d="m175.10155 693.44667c-18.99037-.44305-36.84058 1.46093-52.82422 5.54297-25.57381 6.53126-46.52676 18.72767-59.24218 36.36133-12.71543 17.63366-16.68725 40.62656-9.01758 66.69531l10.46289-1.50781v-.0508-.0508c-.32525-16.9453 5.80792-29.03593 16.77734-38.01172 10.96943-8.97579 36.66348-36.59323 56.02735-38.49414 36.64565-3.59743 84.15223 17.80525 117.29492 49.8125l-44.90625 36.19336 139.43555.10351.88867-114.11523-43.95703 34.59961c-44.0919-24.28076-90.14066-36.12629-130.93946-37.07813zm-11.00195 10.74805c42.218-1.05209 92.37344 10.474 139.86719 37.33594l3.11718 1.76367 32.0625-25.23633-.63476 81.29492-98.5957-.0723 34.08007-27.46875-7.03711-3.82422c-36.69885-37.10196-89.11297-58.76971-130.71679-54.68555-20.80191 2.04208-48.52101 30.03433-61.74805 40.85742-5.49398 4.49548-9.99059 9.91439-13.42383 16.07422.9927-10.80756 4.64825-20.34278 10.62891-28.63672 10.81157-14.99341 29.38765-26.17308 53.2207-32.25976 11.91653-3.04335 25.10702-4.79189 39.17969-5.14258zm-110.29883 96.34375h.006c.00063.0354-.005.0681-.004.10351z" display="block" filter="url(#f)" transform="matrix(1.0332847 0 0 .97120763 .571966 20.759255)"/><path d="m62.427943 788.54341c-30.016466-125.52302 121.920677-172.68224 254.379077-80.5099l39.03939-37.80537-.78269 123.57412-122.34572-.11111s40.72249-40.38144 40.72249-40.38144c-93.15491-62.27336-212.461027-57.61165-211.012547 35.2337z" display="block" fill="#73d216" stroke="#336504" stroke-width="12.177559"/><path d="m51.389927 46.505946c9.1202-15.21975-4.339164-34.073587-31.761445-34.436191l-.285658-8.0190346-13.0015147 15.3287546 13.4677497 11.385114s-.181765-9.453243-.181765-9.453243c18.244937.381972 34.783881 10.925246 31.762633 25.1946z" display="block" fill="#4e9a06" opacity=".5" stroke="#8ae234" stroke-width="1.502089" transform="matrix(-4.1583681 -3.0990381 -3.5133144 3.6680296 441.54294 735.05726)"/><g transform="matrix(-1 0 0 -1 414.57703 1705.671)"><path d="m172.54716 713.73892s-73.083142-4.50808-50.59603 71.22759h-62.86173s4.088563-85.65343 113.45776-71.22759z" display="block" fill="url(#d)" stroke="url(#e)" stroke-width="7.679908"/><path d="m175.10155 693.44667c-18.99037-.44305-36.84058 1.46093-52.82422 5.54297-25.57381 6.53126-46.52676 18.72767-59.24218 36.36133-12.71543 17.63366-16.68725 40.62656-9.01758 66.69531l10.46289-1.50781v-.0508-.0508c-.32525-16.9453 5.80792-29.03593 16.77734-38.01172 10.96943-8.97579 36.66348-36.59323 56.02735-38.49414 36.64565-3.59743 84.15223 17.80525 117.29492 49.8125l-44.90625 36.19336 139.43555.10351.88867-114.11523-43.95703 34.59961c-44.0919-24.28076-90.14066-36.12629-130.93946-37.07813zm-11.00195 10.74805c42.218-1.05209 92.37344 10.474 139.86719 37.33594l3.11718 1.76367 32.0625-25.23633-.63476 81.29492-98.5957-.0723 34.08007-27.46875-7.03711-3.82422c-36.69885-37.10196-89.11297-58.76971-130.71679-54.68555-20.80191 2.04208-48.52101 30.03433-61.74805 40.85742-5.49398 4.49548-9.99059 9.91439-13.42383 16.07422.9927-10.80756 4.64825-20.34278 10.62891-28.63672 10.81157-14.99341 29.38765-26.17308 53.2207-32.25976 11.91653-3.04335 25.10702-4.79189 39.17969-5.14258zm-110.29883 96.34375h.006c.00063.0354-.005.0681-.004.10351z" display="block" filter="url(#f)" transform="matrix(1.0332847 0 0 .97120763 .571966 20.759255)"/><path d="m62.427943 788.54341c-30.016466-125.52302 121.920677-172.68224 254.379077-80.5099l39.03939-37.80537-.78269 123.57412-122.34572-.11111s40.72249-40.38144 40.72249-40.38144c-93.15491-62.27336-212.461027-57.61165-211.012547 35.2337z" display="block" fill="#73d216" stroke="#336504" stroke-width="12.177559"/><path d="m51.389927 46.505946c9.1202-15.21975-4.339164-34.073587-31.761445-34.436191l-.285658-8.0190346-13.0015147 15.3287546 13.4677497 11.385114s-.181765-9.453243-.181765-9.453243c18.244937.381972 34.783881 10.925246 31.762633 25.1946z" display="block" fill="#4e9a06" opacity=".5" stroke="#8ae234" stroke-width="1.502089" transform="matrix(-4.1583681 -3.0990381 -3.5133144 3.6680296 441.54294 735.05726)"/></g></g></svg>